<svg width="203" height="70" viewBox="0 0 165 29" fill="none" xmlns="http://www.w3.org/2000/svg">
<path d="M7.67 23.27C6.35 23.27 5.16 23.01 4.1 22.49C3.06 21.97 2.24 21.16 1.64 20.06C1.06 18.94 0.77 17.53 0.77 15.83V6.74H6.47V14.9C6.47 16.16 6.7 17.06 7.16 17.6C7.64 18.14 8.31 18.41 9.17 18.41C9.73 18.41 10.24 18.28 10.7 18.02C11.16 17.76 11.53 17.35 11.81 16.79C12.09 16.21 12.23 15.47 12.23 14.57V6.74H17.93V23H12.5V18.41L13.55 19.7C12.99 20.9 12.18 21.8 11.12 22.4C10.06 22.98 8.91 23.27 7.67 23.27ZM21.6015 23V0.739999H27.3015V23H21.6015ZM39.9064 23.27C37.8264 23.27 36.2064 22.76 35.0464 21.74C33.8864 20.7 33.3064 19.14 33.3064 17.06V3.11H39.0064V17C39.0064 17.58 39.1664 18.04 39.4864 18.38C39.8064 18.7 40.2164 18.86 40.7164 18.86C41.3964 18.86 41.9764 18.69 42.4564 18.35L43.8664 22.34C43.3864 22.66 42.7964 22.89 42.0964 23.03C41.3964 23.19 40.6664 23.27 39.9064 23.27ZM30.9364 11.6V7.34H42.7264V11.6H30.9364ZM46.0644 23V6.74H51.4944V11.48L50.6844 10.13C51.1644 8.91 51.9444 8 53.0244 7.4C54.1044 6.78 55.4144 6.47 56.9544 6.47V11.6C56.6944 11.56 56.4644 11.54 56.2644 11.54C56.0844 11.52 55.8844 11.51 55.6644 11.51C54.5044 11.51 53.5644 11.83 52.8444 12.47C52.1244 13.09 51.7644 14.11 51.7644 15.53V23H46.0644ZM68.2698 23V19.97L67.8798 19.22V13.64C67.8798 12.74 67.5998 12.05 67.0398 11.57C66.4998 11.07 65.6298 10.82 64.4298 10.82C63.6498 10.82 62.8598 10.95 62.0598 11.21C61.2598 11.45 60.5798 11.79 60.0198 12.23L58.0998 8.36C59.0198 7.76 60.1198 7.3 61.3998 6.98C62.6998 6.64 63.9898 6.47 65.2698 6.47C67.9098 6.47 69.9498 7.08 71.3898 8.3C72.8498 9.5 73.5798 11.39 73.5798 13.97V23H68.2698ZM63.4698 23.27C62.1698 23.27 61.0698 23.05 60.1698 22.61C59.2698 22.17 58.5798 21.57 58.0998 20.81C57.6398 20.05 57.4098 19.2 57.4098 18.26C57.4098 17.26 57.6598 16.4 58.1598 15.68C58.6798 14.94 59.4698 14.38 60.5298 14C61.5898 13.6 62.9598 13.4 64.6398 13.4H68.4798V16.37H65.4198C64.4998 16.37 63.8498 16.52 63.4698 16.82C63.1098 17.12 62.9298 17.52 62.9298 18.02C62.9298 18.52 63.1198 18.92 63.4998 19.22C63.8798 19.52 64.3998 19.67 65.0598 19.67C65.6798 19.67 66.2398 19.52 66.7398 19.22C67.2598 18.9 67.6398 18.42 67.8798 17.78L68.6598 19.88C68.3598 21 67.7698 21.85 66.8898 22.43C66.0298 22.99 64.8898 23.27 63.4698 23.27Z" fill="black"/>
<path d="M75.2877 23L84.4677 10.25L84.4377 14.48L75.6177 2H82.3077L87.9477 10.13L85.0977 10.16L90.6477 2H97.0677L88.2477 14.24V10.04L97.5477 23H90.7077L84.9777 14.45H87.7077L82.0677 23H75.2877ZM109.234 23.27C107.854 23.27 106.674 22.97 105.694 22.37C104.714 21.75 103.964 20.83 103.444 19.61C102.944 18.37 102.694 16.79 102.694 14.87C102.694 12.93 102.934 11.35 103.414 10.13C103.894 8.89 104.614 7.97 105.574 7.37C106.554 6.77 107.774 6.47 109.234 6.47C110.714 6.47 112.054 6.82 113.254 7.52C114.474 8.2 115.434 9.17 116.134 10.43C116.854 11.67 117.214 13.15 117.214 14.87C117.214 16.59 116.854 18.08 116.134 19.34C115.434 20.6 114.474 21.57 113.254 22.25C112.054 22.93 110.714 23.27 109.234 23.27ZM99.0038 28.82V6.74H104.434V9.5L104.404 14.87L104.704 20.27V28.82H99.0038ZM108.034 18.74C108.674 18.74 109.244 18.59 109.744 18.29C110.264 17.99 110.674 17.55 110.974 16.97C111.294 16.39 111.454 15.69 111.454 14.87C111.454 14.05 111.294 13.35 110.974 12.77C110.674 12.19 110.264 11.75 109.744 11.45C109.244 11.15 108.674 11 108.034 11C107.394 11 106.814 11.15 106.294 11.45C105.794 11.75 105.384 12.19 105.064 12.77C104.764 13.35 104.614 14.05 104.614 14.87C104.614 15.69 104.764 16.39 105.064 16.97C105.384 17.55 105.794 17.99 106.294 18.29C106.814 18.59 107.394 18.74 108.034 18.74ZM128.383 23.27C126.463 23.27 124.783 22.91 123.343 22.19C121.923 21.45 120.813 20.45 120.013 19.19C119.233 17.91 118.843 16.46 118.843 14.84C118.843 13.22 119.223 11.78 119.983 10.52C120.763 9.24 121.833 8.25 123.193 7.55C124.553 6.83 126.083 6.47 127.783 6.47C129.383 6.47 130.843 6.8 132.163 7.46C133.483 8.1 134.533 9.05 135.313 10.31C136.093 11.57 136.483 13.1 136.483 14.9C136.483 15.1 136.473 15.33 136.453 15.59C136.433 15.85 136.413 16.09 136.393 16.31H123.523V13.31H133.363L131.203 14.15C131.223 13.41 131.083 12.77 130.783 12.23C130.503 11.69 130.103 11.27 129.583 10.97C129.083 10.67 128.493 10.52 127.813 10.52C127.133 10.52 126.533 10.67 126.013 10.97C125.513 11.27 125.123 11.7 124.843 12.26C124.563 12.8 124.423 13.44 124.423 14.18V15.05C124.423 15.85 124.583 16.54 124.903 17.12C125.243 17.7 125.723 18.15 126.343 18.47C126.963 18.77 127.703 18.92 128.563 18.92C129.363 18.92 130.043 18.81 130.603 18.59C131.183 18.35 131.753 17.99 132.313 17.51L135.313 20.63C134.533 21.49 133.573 22.15 132.433 22.61C131.293 23.05 129.943 23.27 128.383 23.27ZM139.111 23V6.74H144.541V11.48L143.731 10.13C144.211 8.91 144.991 8 146.071 7.4C147.151 6.78 148.461 6.47 150.001 6.47V11.6C149.741 11.56 149.511 11.54 149.311 11.54C149.131 11.52 148.931 11.51 148.711 11.51C147.551 11.51 146.611 11.83 145.891 12.47C145.171 13.09 144.811 14.11 144.811 15.53V23H139.111ZM160.111 23.27C158.031 23.27 156.411 22.76 155.251 21.74C154.091 20.7 153.511 19.14 153.511 17.06V3.11H159.211V17C159.211 17.58 159.371 18.04 159.691 18.38C160.011 18.7 160.421 18.86 160.921 18.86C161.601 18.86 162.181 18.69 162.661 18.35L164.071 22.34C163.591 22.66 163.001 22.89 162.301 23.03C161.601 23.19 160.871 23.27 160.111 23.27ZM151.141 11.6V7.34H162.931V11.6H151.141Z" fill="#629BF0"/>
</svg>
